PathFileType	4	(X/Y/Z)	../Python\walking\Walking10\task.trc
DataRate	CameraRate	NumFrames	NumMarkers	Units	OrigDataRate	OrigDataStartFrame	OrigNumFrames
200.000000	200.000000	4	30	mm	200.000000	299	598
Frame#	Time	CLAV			STRN			RASI			LASI			RTH1			RTH2			RTH3			RTB1			RTB3			RD5M			RTOE			LTH1			LTH2			LTH3			LTB1			LTB2			LTB3			LTOE			LD5M			RTB2			T10			RHEE			C7			PE02			PE03			RPSI			LPSI			PE01			RBAK			LHEE			
		X1	Y1	Z1	X2	Y2	Z2	X3	Y3	Z3	X4	Y4	Z4	X5	Y5	Z5	X6	Y6	Z6	X7	Y7	Z7	X8	Y8	Z8	X9	Y9	Z9	X10	Y10	Z10	X11	Y11	Z11	X12	Y12	Z12	X13	Y13	Z13	X14	Y14	Z14	X15	Y15	Z15	X16	Y16	Z16	X17	Y17	Z17	X18	Y18	Z18	X19	Y19	Z19	X20	Y20	Z20	X21	Y21	Z21	X22	Y22	Z22	X23	Y23	Z23	X24	Y24	Z24	X25	Y25	Z25	X26	Y26	Z26	X27	Y27	Z27	X28	Y28	Z28	X29	Y29	Z29	X30	Y30	Z30	

300	1.495	1002.227844238282	1438.684204101563	205.5263671875001	1052.4189453125	1245.115844726563	224.6455383300782	1017.169921875	1044.825561523438	376.1646728515626	1030.068359375	1020.497741699219	104.7074890136719	972.973266601563	778.2470092773442	406.779968261719	915.2372436523442	755.8242187500002	405.0872802734377	933.7197265625005	711.8551025390627	388.4246826171877	922.1420898437505	370.2993164062501	330.0606384277345	910.616821289063	292.9680786132814	317.1176147460939	964.5712280273442	16.114164352417	311.631072998047	1026.161376953125	31.2500514984131	267.2757263183595	1035.519897460938	718.2876586914065	72.37758636474612	1027.78076171875	672.8545532226565	91.80538177490237	1086.887573242188	658.734558105469	80.68386840820315	1053.951416015625	406.8767700195315	97.61515045166021	1012.990539550782	381.6247863769532	111.3852462768555	1044.082885742188	328.5062561035157	102.9919662475587	1068.262084960938	49.09685516357425	140.5160675048829	1023.81787109375	47.65227508544923	104.6762695312501	877.699584960938	327.7893371582032	331.3972778320314	826.8823852539067	1272.824584960938	210.0816497802736	808.5885620117192	31.01427268981935	225.4541015625001	888.0324707031255	1529.661010742188	187.6265563964844	853.5415649414067	1070.1611328125	257.8821411132814	851.3314819335942	1066.603881835938	206.7067413330079	858.2894897460942	1084.337280273438	280.0466918945314	858.5658569335942	1077.289672851563	180.4623413085938	867.6370239257817	1127.631469726563	226.9802398681642	865.818969726563	1453.698852539063	366.2319335937501	879.5216674804692	117.3502960205079	175.7023620605469	
301	1.5	1008.439880371094	1438.461669921875	205.7440338134767	1058.366455078125	1244.860107421875	224.9849395751954	1022.738647460938	1044.329345703125	376.3350524902345	1035.969970703125	1020.654663085938	104.9323196411133	977.2057495117192	777.7577514648442	406.6816101074221	919.3681640625005	755.6821289062502	404.9477539062502	937.536743164063	711.6087036132815	388.3033447265627	924.106567382813	370.1715698242189	329.8017883300782	912.1251831054692	292.9016113281251	316.852752685547	964.5725708007817	16.14655685424805	311.6097106933595	1026.228759765625	31.24705314636232	267.2715148925782	1043.688720703125	719.1604614257815	71.89778900146487	1036.048950195313	673.6475219726565	91.06949615478518	1095.410400390625	659.9468383789065	80.74587249755862	1065.453002929688	405.3026428222659	98.12712097167974	1025.214233398438	378.9746398925782	111.949447631836	1057.74267578125	326.7272949218751	103.5480880737305	1090.260864257813	48.43759918212893	140.7281188964844	1045.626708984375	45.62713623046876	105.1809997558594	879.4138183593755	327.9071044921876	331.1828613281251	832.8728637695317	1272.850219726563	210.4422760009767	808.6523437500005	31.21516990661623	225.2874755859376	894.3489379882817	1529.524780273438	187.8496704101563	859.2717895507817	1069.987548828125	257.6905517578126	857.1732788085942	1066.546752929688	206.5037384033204	864.025512695313	1084.130004882813	279.8807678222657	864.4434204101567	1077.279541015625	180.2865142822266	873.4780883789067	1127.515014648438	226.9281616210939	872.1957397460942	1453.75146484375	366.5805053710939	899.616333007813	110.9558258056641	177.0419921875001	
302	1.505	1014.659973144532	1438.187866210938	205.9571533203126	1064.3251953125	1244.553833007813	225.2959747314454	1028.338012695313	1043.796264648438	376.463836669922	1041.88916015625	1020.746032714844	105.1086502075196	981.434204101563	777.2529907226567	406.5867004394534	923.4857788085942	755.5357055664065	404.812194824219	941.3345336914067	711.3560180664065	388.1926269531252	926.035522460938	370.0418395996095	329.5567932128907	913.603149414063	292.8348693847657	316.6047363281251	964.5726928710942	16.18147659301759	311.5860900878907	1026.294067382813	31.2462844848633	267.2659301757814	1051.721313476563	719.9483032226565	71.45105743408206	1044.18212890625	674.3709106445315	90.39388275146487	1103.760131835938	661.042419433594	80.81306457519534	1076.809326171875	403.6842956542971	98.66590881347662	1037.356811523438	376.2757568359376	112.5798568725587	1071.306518554688	324.9588012695314	104.0711364746094	1112.276000976563	47.94902420043947	140.9498596191407	1067.503051757813	43.76235198974611	105.6900939941407	881.0940551757817	328.0231933593751	330.9761962890626	838.8701171875005	1272.82470703125	210.7826080322267	808.715209960938	31.42330169677736	225.112762451172	900.6721191406255	1529.339233398438	188.0745086669922	865.0217895507817	1069.776245117188	257.498016357422	863.0377807617192	1066.439086914063	206.3020629882814	869.7827758789067	1083.887573242188	279.7107543945314	870.3401489257817	1077.213134765625	180.1093292236329	879.3346557617192	1127.351684570313	226.8601379394532	878.576293945313	1453.738647460938	366.9230041503907	919.9032592773442	104.6977462768555	178.3471832275391	
303	1.51	1020.888488769532	1437.862426757813	206.1644287109376	1070.295654296875	1244.196533203125	225.5775451660157	1033.966796875	1043.226684570313	376.5536499023439	1047.830078125	1020.77099609375	105.2387313842774	985.6640625000005	776.7329711914067	406.4934692382815	927.5964965820317	755.383483886719	404.6815490722659	945.121459960938	711.0960083007815	388.0913391113284	927.931274414063	369.9105529785157	329.3237304687501	915.0527954101567	292.7683105468751	316.3717346191407	964.5713500976567	16.21921730041505	311.5591430664064	1026.357421875	31.24706459045412	267.2588195800782	1059.614624023438	720.644958496094	71.03933715820315	1052.1728515625	675.0167236328127	89.77862548828128	1111.931762695313	662.0141601562502	80.88059997558597	1088.017456054688	402.0256347656252	99.22577667236334	1049.416748046875	373.535125732422	113.2710113525391	1084.769653320313	323.2077026367189	104.5567474365235	1134.290893554688	47.64321899414064	141.1975097656251	1089.436889648438	42.07250595092775	106.2121963500977	882.7423706054692	328.1383666992189	330.774383544922	844.8744506835942	1272.747436523438	211.1026916503907	808.7789916992192	31.63969802856447	224.9257202148439	907.0022583007817	1529.104248046875	188.3002014160157	870.7922973632817	1069.526245117188	257.3034667968751	868.925903320313	1066.280151367188	206.1004638671876	875.5612792968755	1083.609252929688	279.5357971191407	876.257202148438	1077.08984375	179.9298095703126	885.2070922851567	1127.141357421875	226.775604248047	884.9614257812505	1453.660034179688	367.2589416503907	940.3646850585942	98.60181427001959	179.6007690429688	
